# xmcd
#
# Track frame offsets:
#	150
#	20176
#	37862
#	53043
#	69020
#	84873
#	101871
#	120182
#	135525
#	154800
#	163052
#
# Disc length: 2397 seconds
#
# Revision: 0
# Processed by: cddbd v1.5.1PL0 Copyright (c) Steve Scherf et al.
# Submitted via: dBpowerAMP V4.0
#
DISCID=7f095b0b
DTITLE=Marcos Lima - Quem Canta
DYEAR=2004
DGENRE=MPB
TTITLE0=Quem Canta
TTITLE1=Deixa Aberta
TTITLE2=Aperte o Passo
TTITLE3=Me Beije Na Janela
TTITLE4=Mucama Morena
TTITLE5=Nao Deixe o Rango Queimar
TTITLE6=Medo e Paz
TTITLE7=E Feio
TTITLE8=Samba e Meu Rei
TTITLE9=Confidencia
TTITLE10=Por Amar Assim
EXTD=MPB - Musica Popular Brasileira
EXTT0=
EXTT1=
EXTT2=
EXTT3=
EXTT4=
EXTT5=
EXTT6=
EXTT7=
EXTT8=
EXTT9=
EXTT10=
PLAYORDER=
